<?xml version="1.0" standalone="no"?>
<!DOCTYPE svg PUBLIC "-//W3C//DTD SVG 20010904//EN"
 "http://www.w3.org/TR/2001/REC-SVG-20010904/DTD/svg10.dtd">
<svg version="1.0" xmlns="http://www.w3.org/2000/svg"
 width="587.000000pt" height="587.000000pt" viewBox="0 0 587.000000 587.000000"
 preserveAspectRatio="xMidYMid meet">
<metadata>
Created by potrace 1.14, written by Peter Selinger 2001-2017
</metadata>
<g transform="translate(0.000000,587.000000) scale(0.100000,-0.100000)"
fill="#000000" stroke="none">
<path d="M2735 5864 c-277 -28 -428 -55 -628 -114 -1039 -303 -1836 -1172
-2047 -2230 -45 -224 -55 -334 -55 -585 0 -251 11 -364 55 -585 230 -1153
1153 -2071 2308 -2294 209 -40 324 -51 567 -51 244 0 358 11 568 51 1081 209
1969 1034 2261 2099 76 278 101 472 101 780 0 243 -11 358 -51 567 -186 962
-861 1781 -1774 2152 -233 94 -466 156 -721 191 -109 15 -499 28 -584 19z
m2318 -1723 c55 -21 67 -47 67 -146 0 -61 -5 -97 -13 -110 -21 -28 -34 -11
-41 54 -7 62 -16 75 -51 76 -13 0 -22 10 -28 32 -9 29 -13 32 -68 38 -103 12
-91 43 22 55 41 4 77 8 81 9 4 0 18 -3 31 -8z m-170 -176 c-35 -42 -53 -55
-53 -38 0 10 72 83 83 83 4 0 -9 -20 -30 -45z m87 17 c0 -4 -27 -34 -60 -67
-33 -33 -60 -53 -60 -45 0 8 23 38 52 67 50 50 68 63 68 45z m-11 -91 c-19
-22 -41 -40 -49 -40 -8 -1 6 19 30 44 53 54 66 51 19 -4z m-310 -267 c-165
-195 -343 -395 -553 -624 -198 -215 -739 -760 -700 -705 132 188 648 757 1098
1212 154 156 281 281 284 278 2 -2 -56 -75 -129 -161z m-340 -191 c-36 -38
-209 -221 -385 -408 -463 -493 -467 -496 -264 -242 100 125 180 234 177 241
-3 7 -71 112 -151 234 l-145 222 172 0 172 0 79 -120 c43 -66 81 -120 83 -120
2 0 48 37 101 83 53 45 122 104 152 129 80 68 85 58 9 -19z m285 -65 c-95
-117 -243 -295 -327 -394 l-28 -33 161 -240 c88 -133 160 -243 160 -246 0 -3
-78 -5 -172 -5 l-173 0 -93 145 c-52 80 -97 145 -100 145 -3 0 -38 -27 -79
-61 -136 -112 -121 -96 421 473 182 191 332 348 334 348 2 0 -45 -60 -104
-132z m-2994 -8 l0 -130 -245 0 -245 0 0 -65 0 -65 215 0 215 0 0 -125 0 -125
-215 0 -215 0 0 -200 0 -200 -150 0 -150 0 0 520 0 520 395 0 395 0 0 -130z
m400 -260 l0 -390 275 0 275 0 0 -130 0 -130 -425 0 -425 0 0 520 0 520 150 0
150 0 0 -390z m788 318 c22 -40 61 -113 87 -162 l48 -88 84 161 84 161 170 0
c93 0 169 -3 169 -6 0 -3 -81 -137 -180 -298 l-180 -292 0 -222 0 -222 -150 0
-150 0 0 226 0 226 -180 289 c-99 159 -180 292 -180 294 0 3 76 5 169 5 l170
0 39 -72z m-1956 -1123 c4 -35 22 -36 26 -2 4 30 22 37 22 8 0 -34 -12 -51
-35 -51 -23 0 -35 17 -35 51 0 28 18 23 22 -6z m108 -2 l-22 -28 24 -6 c18 -6
15 -7 -15 -8 l-38 -1 20 29 c20 27 20 30 4 34 -10 3 -3 5 15 6 l33 1 -21 -27z
m95 -9 l12 -29 -37 0 c-36 0 -37 1 -29 24 20 51 34 53 54 5z m40 26 c5 -8 11
-7 21 1 15 13 20 -1 5 -16 -5 -6 -11 -17 -13 -26 -2 -11 -8 -5 -19 17 -15 31
-10 49 6 24z m139 -12 c4 12 11 22 16 22 12 0 -15 -63 -28 -68 -5 -1 -15 11
-21 29 -15 44 -14 48 8 20 l19 -24 6 21z m76 12 l-25 -7 25 -11 c24 -10 24
-11 3 -11 -32 -1 -29 -19 5 -24 25 -4 25 -4 -5 -6 -31 -1 -33 1 -33 34 0 32 3
35 28 34 l27 -1 -25 -8z m100 -5 c0 -8 7 -15 15 -15 8 0 15 7 15 15 0 8 5 15
10 15 6 0 10 -16 10 -35 0 -19 -4 -35 -10 -35 -5 0 -10 7 -10 15 0 8 -7 15
-15 15 -8 0 -15 -7 -15 -15 0 -8 -4 -15 -10 -15 -5 0 -10 16 -10 35 0 19 5 35
10 35 6 0 10 -7 10 -15z m123 -2 c2 -10 8 -25 11 -33 5 -12 -2 -15 -29 -15
-39 0 -40 3 -23 40 13 29 33 33 41 8z m47 -9 c0 -22 17 -17 23 8 4 12 9 19 13
15 8 -7 -15 -67 -26 -67 -8 0 -30 45 -30 61 0 6 5 7 10 4 6 -3 10 -13 10 -21z
m108 1 c17 -37 16 -40 -23 -40 -27 0 -34 3 -29 15 3 8 9 23 11 33 8 25 28 21
41 -8z m72 16 c-29 -8 -36 -46 -8 -46 9 0 20 -4 24 -8 4 -4 -4 -7 -19 -7 -14
0 -30 8 -36 17 -14 26 5 53 37 52 l27 -1 -25 -7z m47 -43 c-2 -13 -4 -5 -4 17
-1 22 1 32 4 23 2 -10 2 -28 0 -40z m71 -11 c24 -4 24 -4 -5 -6 -32 -1 -33 0
-31 37 1 36 1 36 5 5 3 -26 9 -33 31 -36z m52 28 c0 -19 -4 -35 -10 -35 -5 0
-10 16 -10 35 0 19 5 35 10 35 6 0 10 -16 10 -35z m40 18 c1 -17 1 -17 14 0
18 23 25 22 19 -3 -3 -11 0 -27 7 -35 15 -18 -1 -20 -19 -2 -11 10 -14 10 -18
0 -9 -26 -23 -12 -23 22 0 35 20 51 20 18z m153 10 c-7 -2 -13 -18 -13 -34 0
-16 -4 -29 -10 -29 -5 0 -10 13 -10 29 0 16 -6 32 -12 34 -7 3 3 5 22 5 19 0
29 -2 23 -5z m70 0 c-13 -2 -23 -9 -23 -14 0 -5 10 -10 23 -10 l22 -2 -22 -4
c-13 -2 -23 -8 -23 -13 0 -5 10 -11 23 -13 16 -3 13 -5 -10 -6 -31 -1 -33 1
-33 34 0 33 2 35 33 34 23 -1 26 -3 10 -6z m57 -10 c1 -17 1 -17 11 0 5 9 15
17 21 17 7 0 6 -5 -2 -15 -10 -12 -10 -18 0 -30 7 -9 10 -19 6 -22 -4 -4 -12
-1 -17 7 -8 11 -12 12 -16 3 -10 -25 -23 -12 -23 22 0 19 5 35 10 35 6 0 10
-8 10 -17z m96 0 c13 -17 13 -17 14 0 0 33 20 17 20 -18 0 -40 -11 -45 -33
-12 l-16 22 0 -22 c-1 -38 -21 -26 -21 12 0 38 15 45 36 18z m129 -3 c4 -12 1
-27 -5 -35 -27 -33 -78 -5 -65 35 4 14 15 20 35 20 20 0 31 -6 35 -20z m65
-41 c23 -6 22 -7 -7 -8 -32 -1 -33 0 -32 37 1 35 2 36 8 7 4 -20 14 -31 31
-36z m95 26 c0 -27 -3 -30 -30 -30 -21 0 -31 5 -33 18 -6 33 6 49 35 45 24 -3
28 -8 28 -33z m71 -21 c-6 -16 -46 -19 -46 -4 0 6 8 10 18 8 12 -2 18 5 21 27
4 26 5 27 9 7 2 -13 1 -30 -2 -38z m41 4 c-2 -13 -4 -5 -4 17 -1 22 1 32 4 23
2 -10 2 -28 0 -40z m71 -11 c24 -4 24 -4 -5 -6 -32 -1 -33 0 -31 37 1 36 1 36
5 5 3 -26 9 -33 31 -36z m75 56 c-13 -2 -23 -9 -23 -14 0 -5 10 -10 23 -10
l22 -2 -22 -4 c-13 -2 -23 -8 -23 -13 0 -5 10 -11 23 -13 16 -3 13 -5 -10 -6
-31 -1 -33 1 -33 34 0 33 2 35 33 34 23 -1 26 -3 10 -6z m102 -3 c3 -5 3 -21
-1 -35 -5 -22 -9 -24 -22 -13 -12 10 -16 10 -19 1 -9 -26 -23 -12 -23 22 0 32
2 35 29 35 17 0 32 -4 36 -10z m32 -42 c-2 -13 -4 -5 -4 17 -1 22 1 32 4 23 2
-10 2 -28 0 -40z m128 16 l12 -29 -38 0 c-20 0 -36 2 -33 6 2 3 8 18 14 33 12
34 28 30 45 -10z m105 26 l-25 -8 23 -7 c22 -7 29 -25 15 -39 -5 -4 -8 -13 -8
-18 0 -6 -6 -13 -13 -16 -7 -2 -10 2 -6 12 3 9 1 16 -5 16 -6 0 -11 4 -11 10
0 5 7 7 15 4 8 -4 15 -2 15 4 0 5 -7 12 -15 16 -27 10 -18 36 13 35 l27 -1
-25 -8z"/>
<path d="M1000 2286 c0 -9 5 -16 10 -16 6 0 10 4 10 9 0 6 -4 13 -10 16 -5 3
-10 -1 -10 -9z"/>
<path d="M1486 2285 c-3 -8 -1 -15 4 -15 6 0 10 7 10 15 0 8 -2 15 -4 15 -2 0
-6 -7 -10 -15z"/>
<path d="M1640 2285 c0 -8 4 -15 10 -15 5 0 7 7 4 15 -4 8 -8 15 -10 15 -2 0
-4 -7 -4 -15z"/>
<path d="M2403 2294 c-8 -21 13 -42 28 -27 13 13 5 43 -11 43 -6 0 -13 -7 -17
-16z"/>
<path d="M2564 2299 c-3 -6 0 -17 8 -25 13 -13 16 -13 27 0 7 8 10 20 6 26 -8
13 -32 13 -41 -1z"/>
<path d="M2930 2295 c0 -8 7 -15 15 -15 8 0 15 7 15 15 0 8 -7 15 -15 15 -8 0
-15 -7 -15 -15z"/>
<path d="M3100 2280 c0 -5 5 -10 10 -10 6 0 10 5 10 10 0 6 -4 10 -10 10 -5 0
-10 -4 -10 -10z"/>
</g>
</svg>
